<svg xmlns="http://www.w3.org/2000/svg" width="53.653" height="64.436" viewBox="0 0 53.653 64.436">
  <g id="Group_12" data-name="Group 12" transform="translate(-11.993 -10.14)">
    <g id="LJLf6o" transform="translate(12.5 10.64)">
      <g id="Group_393" data-name="Group 393">
        <path id="Path_74" data-name="Path 74" d="M997.961,702.191h.585c2.9,0,5.793-.02,8.689.016a8.113,8.113,0,0,1,1.875.341.717.717,0,0,1,.528.822,17.089,17.089,0,0,0,0,1.754.738.738,0,0,1-.558.847,7.671,7.671,0,0,1-1.793.321c-2.925.032-5.85.015-8.775.015h-.526v8.181h15.068c.342,0,.684.013,1.026.018a.862.862,0,0,1,.884.651c1.607,4.5,3.234,8.986,4.836,13.484a.553.553,0,0,0,.641.438c.941-.023,1.884-.019,2.825,0a3.47,3.47,0,0,1,.924.137c.722.218.873.448.873,1.2,0,.557-.017,1.114.006,1.669a.724.724,0,0,1-.477.777,3.665,3.665,0,0,1-1.184.312c-2.025.031-4.051.016-6.077.011-.511,0-.728-.188-.906-.736q-2.1-6.445-4.183-12.893a.612.612,0,0,0-.7-.524q-8.6.036-17.207.032c-.942,0-1.327-.373-1.327-1.312q0-13.42,0-26.839a1.306,1.306,0,0,1,1.471-1.477c.7,0,1.4,0,2.1,0a1.292,1.292,0,0,1,1.37,1.238,3.929,3.929,0,0,1,.011.427q0,5.265,0,10.53Z" transform="translate(-972.426 -677.504)" fill="none" stroke="#22857a" stroke-width="1"/>
        <path id="Path_75" data-name="Path 75" d="M958.332,720.511v4.1a15.5,15.5,0,0,0-10.686,6.9A15.083,15.083,0,0,0,945.2,741.71a15.546,15.546,0,0,0,14.3,13.849,15.141,15.141,0,0,0,11.389-3.766,15.417,15.417,0,0,0,5.366-10.7h4.033a19.654,19.654,0,1,1-21.959-20.578Z" transform="translate(-941.013 -696.279)" fill="none" stroke="#22857a" stroke-width="1"/>
        <path id="Path_76" data-name="Path 76" d="M991.763,659.3a5.272,5.272,0,1,1-5.241,5.307A5.264,5.264,0,0,1,991.763,659.3Z" transform="translate(-968.506 -659.299)" fill="none" stroke="#22857a" stroke-width="1"/>
      </g>
    </g>
  </g>
</svg>
