<svg xmlns="http://www.w3.org/2000/svg" width="87" height="86" viewBox="0 0 87 86">
  <g id="icon" transform="translate(21.006 18.136)">
    <path id="Path_28" data-name="Path 28" d="M514.461,1770.957a1.229,1.229,0,0,1,1.267-.688c2.993.021,5.986.041,8.979,0a3.177,3.177,0,0,1,3.16,1.812c1.49-.5,3-.957,4.473-1.509a20.689,20.689,0,0,0,5.823-3.229,8.482,8.482,0,0,0,3.506-7.295,3.763,3.763,0,0,1,3.126-3.879,3.924,3.924,0,0,1,4.626,3.554,25.053,25.053,0,0,1-1.352,10.4.647.647,0,0,0,.007.161h.5q3.252,0,6.5,0a3.891,3.891,0,0,1,1.7,7.463c-.056.027-.109.059-.2.11a10.782,10.782,0,0,0-1.525,9.181,3.89,3.89,0,0,1-2.241,2.411,11.756,11.756,0,0,1,.468,2.08,3.8,3.8,0,0,1-2.97,3.909,1.281,1.281,0,0,0-.211.1H536.6c-.238-.033-.475-.07-.713-.1-.754-.087-1.521-.11-2.26-.267-1.8-.382-3.581-.829-5.374-1.237-.163-.037-.455-.036-.507.053a3.472,3.472,0,0,1-2.023,1.549H514.461Zm13.593,3.152v.454c0,5.551.008,11.1-.014,16.654,0,.5.137.679.615.805a36.217,36.217,0,0,0,9.24,1.553q5.7.005,11.408.011a1.945,1.945,0,1,0,0-3.884c-.874-.008-1.748,0-2.621,0-.72,0-1.139-.356-1.144-.961s.414-.976,1.127-.977c1.521,0,3.042.005,4.563,0a1.947,1.947,0,1,0-.01-3.885c-.874-.006-1.747,0-2.621,0-.706,0-1.126-.378-1.116-.988.01-.588.424-.948,1.106-.949,1.521,0,3.042,0,4.563,0a1.949,1.949,0,1,0-.02-3.886c-.89,0-1.781.026-2.669-.017a1.422,1.422,0,0,1-.806-.343.82.82,0,0,1-.157-.987.925.925,0,0,1,.916-.592c1.586,0,3.172.013,4.757,0a1.942,1.942,0,0,0,1.91-2.552,2,2,0,0,0-2.04-1.332q-6.141,0-12.281,0c-.681,0-1.1-.363-1.106-.95-.01-.611.409-.985,1.116-.987.858,0,1.717-.03,2.572.012a.673.673,0,0,0,.768-.519,23.045,23.045,0,0,0,1.354-9.912,1.936,1.936,0,0,0-1.876-1.82,1.963,1.963,0,0,0-1.975,1.714,3.955,3.955,0,0,0-.02.727,9.421,9.421,0,0,1-2.853,7.128,19.4,19.4,0,0,1-6.912,4.473C531.963,1772.832,530.032,1773.421,528.054,1774.109Zm-11.618-1.891v21.345a1.484,1.484,0,0,0,.174.024c2.8,0,5.6.006,8.4,0,.749,0,1.108-.409,1.109-1.22q0-9.466,0-18.932c0-.851-.363-1.214-1.211-1.216-1.5,0-3.009,0-4.513,0Z" transform="translate(-514.461 -1745.803)" fill="#c2f2eb"/>
    <path id="Path_29" data-name="Path 29" d="M751.267,1679.069c0,.711,0,1.421,0,2.131a.972.972,0,1,1-1.935-.008q-.007-2.156,0-4.311a.97.97,0,1,1,1.935.008C751.273,1677.616,751.267,1678.343,751.267,1679.069Z" transform="translate(-719.224 -1675.851)" fill="#c2f2eb"/>
    <path id="Path_30" data-name="Path 30" d="M685.76,1705.9a4.585,4.585,0,0,1,.827.49c.883.851,1.748,1.722,2.607,2.6a.985.985,0,1,1-1.388,1.381q-1.311-1.291-2.6-2.6a.878.878,0,0,1-.241-1.135A4.2,4.2,0,0,1,685.76,1705.9Z" transform="translate(-663.001 -1702.048)" fill="#c2f2eb"/>
    <path id="Path_31" data-name="Path 31" d="M795.93,1705.9a4.33,4.33,0,0,1,.8.724.852.852,0,0,1-.2,1.1c-.5.523-1.023,1.031-1.536,1.545-.365.366-.725.736-1.1,1.094a1,1,0,0,1-1.464.093.981.981,0,0,1,.064-1.462c.86-.875,1.723-1.746,2.605-2.6A4.725,4.725,0,0,1,795.93,1705.9Z" transform="translate(-756.55 -1702.047)" fill="#c2f2eb"/>
    <path id="Path_32" data-name="Path 32" d="M661.32,1773.237c-.629,0-1.259.008-1.888,0a.966.966,0,1,1-.021-1.932q1.936-.016,3.873,0a.938.938,0,0,1,.972.979.947.947,0,0,1-1,.954C662.611,1773.245,661.965,1773.237,661.32,1773.237Z" transform="translate(-639.982 -1759.061)" fill="#c2f2eb"/>
    <path id="Path_33" data-name="Path 33" d="M812.874,1773.25c-.613,0-1.226,0-1.84,0a.972.972,0,1,1-.026-1.936q1.864-.008,3.728,0a.972.972,0,1,1-.023,1.936C814.1,1773.254,813.488,1773.25,812.874,1773.25Z" transform="translate(-772.089 -1759.073)" fill="#c2f2eb"/>
    <path id="Path_34" data-name="Path 34" d="M575.079,1947.425c0-1.244,0-2.488,0-3.732a.974.974,0,1,1,1.936-.017q0,3.781,0,7.562a.972.972,0,1,1-1.935.017C575.075,1949.978,575.079,1948.7,575.079,1947.425Z" transform="translate(-567.308 -1908.41)" fill="#c2f2eb"/>
    <path id="Path_35" data-name="Path 35" d="M577.028,1913.267a.968.968,0,1,1-.968-.98A.956.956,0,0,1,577.028,1913.267Z" transform="translate(-567.32 -1881.983)" fill="#c2f2eb"/>
    <g id="Ellipse_5" data-name="Ellipse 5" transform="translate(-21.006 -18.136)" fill="none" stroke="#fff" stroke-width="2">
      <ellipse cx="43.5" cy="43" rx="43.5" ry="43" stroke="none"/>
      <ellipse cx="43.5" cy="43" rx="42.5" ry="42" fill="none"/>
    </g>
  </g>
</svg>
