<svg xmlns="http://www.w3.org/2000/svg" width="87" height="86" viewBox="0 0 87 86">
  <g id="icon" transform="translate(-312.657 -1562)">
    <g id="Ellipse_1" data-name="Ellipse 1" transform="translate(312.657 1562)" fill="none" stroke="#fff" stroke-width="2">
      <ellipse cx="43.5" cy="43" rx="43.5" ry="43" stroke="none"/>
      <ellipse cx="43.5" cy="43" rx="42.5" ry="42" fill="none"/>
    </g>
    <g id="tefa8P.tif" transform="translate(335.566 954.625)">
      <g id="Group_370" data-name="Group 370" transform="translate(-3.723 626)">
        <path id="Path_41" data-name="Path 41" d="M20.34,674.75c-1.656-1.085-3.305-2.179-4.973-3.245a1.508,1.508,0,0,0-.83-.209c-1.79.079-3.578.187-5.367.294a1.2,1.2,0,0,1-1.248-.752c-.79-1.588-1.589-3.172-2.414-4.742a1.609,1.609,0,0,0-.641-.638Q2.552,664.245.205,663.1a1.3,1.3,0,0,1-.814-1.4c.119-1.788.211-3.577.29-5.367a1.273,1.273,0,0,0-.2-.7c-.959-1.493-1.928-2.981-2.922-4.452a1.284,1.284,0,0,1,0-1.615q1.5-2.2,2.933-4.444a1.347,1.347,0,0,0,.2-.743c-.077-1.742-.163-3.485-.291-5.224a1.407,1.407,0,0,1,.892-1.546c1.569-.756,3.118-1.554,4.663-2.359a1.354,1.354,0,0,0,.54-.546q1.227-2.361,2.4-4.747a1.3,1.3,0,0,1,1.409-.8c1.8.124,3.609.22,5.414.306a1.107,1.107,0,0,0,.607-.187c1.251-.808,2.49-1.636,3.734-2.455.422-.278.85-.547,1.276-.821h.571q2.495,1.648,4.993,3.291a.956.956,0,0,0,.517.179q2.732-.127,5.462-.292a1.208,1.208,0,0,1,1.443.8c.8,1.568,1.576,3.143,2.391,4.7a1.523,1.523,0,0,0,.611.606c1.586.827,3.187,1.629,4.788,2.429a1.148,1.148,0,0,1,.715,1.174c-.1,1.8-.218,3.609-.3,5.414a1.511,1.511,0,0,0,.207.832c1.039,1.63,2.107,3.24,3.167,4.857v.857a2.6,2.6,0,0,0-.2.241c-.989,1.492-1.985,2.98-2.951,4.487a1.6,1.6,0,0,0-.24.871q.107,2.636.286,5.27a1.263,1.263,0,0,1-.784,1.365q-2.345,1.15-4.659,2.363a1.694,1.694,0,0,0-.673.668q-1.227,2.332-2.387,4.7a1.271,1.271,0,0,1-1.376.771c-1.818-.123-3.639-.221-5.459-.315a.858.858,0,0,0-.482.131c-1.692,1.109-3.377,2.229-5.063,3.346Zm8.3-5.393v0c.855.049,1.711.084,2.564.155a.6.6,0,0,0,.692-.4c.723-1.48,1.46-2.954,2.238-4.406a2.087,2.087,0,0,1,.812-.808c1.453-.776,2.928-1.511,4.408-2.235a.6.6,0,0,0,.393-.69c-.111-1.661-.215-3.324-.268-4.988a2.071,2.071,0,0,1,.306-1.1c.886-1.409,1.813-2.792,2.743-4.172a.506.506,0,0,0,0-.668c-.93-1.38-1.858-2.763-2.744-4.172a2.073,2.073,0,0,1-.308-1.1c.055-1.68.162-3.358.269-5.036a.543.543,0,0,0-.354-.62c-1.493-.732-2.982-1.475-4.449-2.258a2.084,2.084,0,0,1-.812-.808c-.784-1.466-1.526-2.956-2.26-4.448a.549.549,0,0,0-.621-.358c-1.678.108-3.356.216-5.036.271a2.071,2.071,0,0,1-1.1-.309c-1.409-.886-2.791-1.815-4.172-2.743a.506.506,0,0,0-.669-.005c-1.366.923-2.735,1.843-4.132,2.717a2.256,2.256,0,0,1-1.19.338c-1.632-.047-3.263-.155-4.893-.265a.669.669,0,0,0-.764.429c-.706,1.453-1.455,2.885-2.171,4.334a1.847,1.847,0,0,1-.88.886c-1.449.714-2.883,1.459-4.333,2.172a.638.638,0,0,0-.438.715c.117,1.645.219,3.292.271,4.94a2.162,2.162,0,0,1-.317,1.148c-.883,1.41-1.813,2.792-2.742,4.173a.51.51,0,0,0,0,.672c.869,1.288,1.695,2.605,2.583,3.879a2.707,2.707,0,0,1,.483,1.873c-.12,1.533-.174,3.072-.274,4.607a.515.515,0,0,0,.35.575c1.479.726,2.943,1.481,4.422,2.208a1.847,1.847,0,0,1,.887.88c.73,1.477,1.492,2.938,2.216,4.418a.542.542,0,0,0,.616.359c1.63-.106,3.262-.181,4.892-.288a2.023,2.023,0,0,1,1.335.37c1.351.917,2.726,1.8,4.08,2.711a.508.508,0,0,0,.67,0c1.381-.929,2.763-1.857,4.172-2.743a2.23,2.23,0,0,1,1.1-.314C27.028,669.231,27.836,669.313,28.644,669.357Z" transform="translate(3.723 -626)" fill="#c2f2eb"/>
        <path id="Path_42" data-name="Path 42" d="M92.406,737.9a15.173,15.173,0,1,1,15.163,15.183A15.206,15.206,0,0,1,92.406,737.9Zm28.328.011a13.142,13.142,0,1,0-13.143,13.143A13.18,13.18,0,0,0,120.734,737.908Z" transform="translate(-83.253 -713.535)" fill="#c2f2eb"/>
        <path id="Path_43" data-name="Path 43" d="M182.345,838.737c2.21-2.086,4.557-4.31,6.92-6.517a1.97,1.97,0,0,1,.848-.458.856.856,0,0,1,.949.48.921.921,0,0,1-.058,1.07,2.749,2.749,0,0,1-.352.384q-3.768,3.559-7.541,7.113c-.766.722-1.241.706-1.978-.05q-1.842-1.89-3.681-3.783a2.886,2.886,0,0,1-.392-.475.987.987,0,0,1,1.389-1.33,4.064,4.064,0,0,1,.462.406Z" transform="translate(-159.717 -812.15)" fill="#c2f2eb"/>
      </g>
    </g>
  </g>
</svg>
