<svg xmlns="http://www.w3.org/2000/svg" width="87" height="86" viewBox="0 0 87 86">
  <g id="icon" transform="translate(16.331 18.136)">
    <path id="Path_21" data-name="Path 21" d="M273.631,2002.629c-1.089,1.089-2.167,2.19-3.276,3.257a.96.96,0,0,0-.324.965c.226,1.214.434,2.431.644,3.648.087.5.174,1.018-.33,1.372a1.192,1.192,0,0,1-1.356-.1c-1.124-.6-2.243-1.212-3.386-1.772a1.08,1.08,0,0,0-.834,0c-1.18.574-2.338,1.193-3.494,1.814a1.026,1.026,0,0,1-1.618-1.17c.255-1.326.476-2.659.674-3.995a.865.865,0,0,0-.228-.636q-1.407-1.423-2.864-2.8a1.108,1.108,0,0,1-.419-1.231,1.049,1.049,0,0,1,1-.652c1.321-.17,2.64-.36,3.951-.588a1.018,1.018,0,0,0,.638-.464c.622-1.177,1.2-2.376,1.782-3.576a1.018,1.018,0,0,1,1.975,0c.562,1.165,1.155,2.315,1.7,3.486a.923.923,0,0,0,.821.59c1.244.155,2.481.377,3.726.522a1.506,1.506,0,0,1,1.215.743Zm-5.141,6.671c-.168-1-.286-1.92-.484-2.818a1.393,1.393,0,0,1,.455-1.449c.681-.645,1.323-1.331,2.02-2.039-.9-.13-1.751-.282-2.608-.367a1.577,1.577,0,0,1-1.467-1.014c-.348-.823-.785-1.609-1.23-2.5-.448.9-.883,1.7-1.239,2.523a1.553,1.553,0,0,1-1.423.99c-.872.092-1.738.241-2.544.356.58.626,1.111,1.3,1.741,1.853a1.76,1.76,0,0,1,.593,1.907c-.187.811-.286,1.643-.441,2.565.948-.492,1.8-.907,2.618-1.366a1.335,1.335,0,0,1,1.418.009C266.723,2008.4,267.565,2008.819,268.49,2009.3Z" transform="translate(-219.291 -1962.322)" fill="#c2f2eb"/>
    <path id="Path_22" data-name="Path 22" d="M99.65,1979.934c.24-1.4.5-2.922.761-4.444a13.173,13.173,0,0,0,.246-1.483,1.01,1.01,0,0,0-.289-.68c-1.329-1.326-2.677-2.632-4.026-3.937-.333-.322-.633-.656-.478-1.158a1.1,1.1,0,0,1,1.062-.741c1.819-.244,3.631-.537,5.449-.783a1.088,1.088,0,0,0,.945-.692c.775-1.641,1.6-3.261,2.4-4.891.212-.431.443-.815,1.011-.818s.808.372,1.02.805c.792,1.613,1.608,3.214,2.366,4.842a1.221,1.221,0,0,0,1.085.761c1.837.245,3.669.536,5.5.794.453.064.834.282.872.71a1.44,1.44,0,0,1-.332,1.022c-1.353,1.383-2.749,2.724-4.148,4.061a.833.833,0,0,0-.272.863c.343,1.86.655,3.727.971,5.592a1.063,1.063,0,0,1-.379,1.193,1.1,1.1,0,0,1-1.2-.042c-1.672-.888-3.355-1.756-5.021-2.655a.84.84,0,0,0-.907,0q-2.551,1.373-5.127,2.7C100.346,1981.377,99.624,1980.933,99.65,1979.934Zm7.083-16.48c-.726,1.468-1.4,2.808-2.05,4.161a1.343,1.343,0,0,1-1.124.862c-1.523.2-3.04.445-4.514.666a26.88,26.88,0,0,0,2.5,2.569,2.684,2.684,0,0,1,.957,3.149c-.292,1.111-.4,2.269-.615,3.517,1.416-.742,2.739-1.409,4.035-2.125a1.525,1.525,0,0,1,1.633.006c1.113.621,2.25,1.2,3.379,1.79.174.091.354.172.594.289-.024-.273-.028-.447-.056-.616-.228-1.351-.442-2.706-.7-4.051a1.207,1.207,0,0,1,.4-1.194c.836-.805,1.662-1.622,2.5-2.422.286-.273.6-.513.907-.768-1.614-.36-3.1-.6-4.6-.789a1.475,1.475,0,0,1-1.252-.958C108.107,1966.212,107.446,1964.9,106.733,1963.454Z" transform="translate(-79.576 -1931.39)" fill="#c2f2eb"/>
    <path id="Path_23" data-name="Path 23" d="M87.122,1845.954c1.653.15,3.625.177,5.534.536,3.544.665,5.631,3.006,6.482,6.413a38.632,38.632,0,0,1,.6,4.531c.292,2.319.579,4.639.879,6.957.087.673-.2,1.2-.753,1.294-.61.1-1.063-.272-1.151-1-.429-3.548-.859-7.1-1.27-10.647a6.439,6.439,0,0,0-5.963-5.8,44.106,44.106,0,0,0-8.455-.094,7.772,7.772,0,0,0-4.423,1.333,7.374,7.374,0,0,0-2.663,5.28q-.495,4.669-1,9.337a6.3,6.3,0,0,1-.118.859.921.921,0,0,1-1.07.752.9.9,0,0,1-.811-1.02c.09-1.058.241-2.111.354-3.168q.4-3.776.794-7.553a8.243,8.243,0,0,1,7.87-7.658C83.578,1846.181,85.2,1846.086,87.122,1845.954Z" transform="translate(-59.707 -1832.116)" fill="#c2f2eb"/>
    <path id="Path_24" data-name="Path 24" d="M-24.51,2010.883c.2-1.185.4-2.5.661-3.809a1.227,1.227,0,0,0-.41-1.318c-.92-.828-1.78-1.721-2.669-2.583a1.021,1.021,0,0,1-.411-1.12,1.071,1.071,0,0,1,1.016-.717c1.322-.169,2.637-.386,3.957-.566a.8.8,0,0,0,.683-.518c.57-1.2,1.18-2.39,1.759-3.59a1.065,1.065,0,0,1,.956-.727,1.052,1.052,0,0,1,.966.712c.58,1.2,1.189,2.386,1.757,3.592a.891.891,0,0,0,.8.542c1.34.174,2.681.351,4.009.6a1.372,1.372,0,0,1,.822.611.892.892,0,0,1-.268,1.1c-.987.956-1.964,1.922-2.96,2.867a.759.759,0,0,0-.26.8c.26,1.326.46,2.663.7,3.993.079.438.037.89-.358,1.071a1.5,1.5,0,0,1-1.124.046c-1.224-.572-2.41-1.225-3.6-1.874a.839.839,0,0,0-.909-.008q-1.806.984-3.641,1.916C-23.816,2012.3-24.525,2011.857-24.51,2010.883Zm8.878-1.569c-.181-1.03-.328-1.922-.5-2.81a1.494,1.494,0,0,1,.48-1.51c.674-.626,1.281-1.326,1.932-2.01-.826-.119-1.676-.276-2.533-.355a1.62,1.62,0,0,1-1.5-1.059c-.343-.811-.771-1.586-1.2-2.463-.443.89-.879,1.663-1.217,2.477a1.61,1.61,0,0,1-1.511,1.045c-.851.083-1.695.238-2.538.361.718.742,1.391,1.459,2.088,2.152a1.215,1.215,0,0,1,.371,1.209c-.067.3-.125.6-.175.91-.1.649-.2,1.3-.316,2.045.956-.5,1.8-.918,2.626-1.381a1.273,1.273,0,0,1,1.363.006C-17.438,2008.388-16.594,2008.81-15.632,2009.313Z" transform="translate(27.39 -1962.32)" fill="#c2f2eb"/>
    <path id="Path_25" data-name="Path 25" d="M134.073,1741.007a6.329,6.329,0,0,1,6.421,4.744,7.841,7.841,0,0,1-5.145,8.886,5.123,5.123,0,0,1-3.756-.446,8.143,8.143,0,0,1-4.136-7.566A6.319,6.319,0,0,1,134.073,1741.007Zm-.039,1.934a4.4,4.4,0,0,0-4.61,3.573,6.165,6.165,0,0,0,3.089,5.971,3.129,3.129,0,0,0,2.076.319,5.78,5.78,0,0,0,4.058-6.442A4.385,4.385,0,0,0,134.034,1742.941Z" transform="translate(-107.012 -1741.007)" fill="#c2f2eb"/>
    <path id="Path_26" data-name="Path 26" d="M224.813,1918.86c.018.665-.324,1.1-.939,1.115s-.967-.4-1.017-1.156q-.3-4.513-.617-9.026c-.007-.1-.028-.192-.028-.288a.982.982,0,0,1,.882-1.04.942.942,0,0,1,1.032.936c.161,2.062.306,4.125.455,6.188C224.659,1916.651,224.732,1917.711,224.813,1918.86Z" transform="translate(-189.301 -1886.382)" fill="#c2f2eb"/>
    <path id="Path_27" data-name="Path 27" d="M115.887,1909.972c-.2,2.966-.4,5.932-.612,8.9-.066.914-.761,1.38-1.442,1.011a.973.973,0,0,1-.5-1.026q.21-3.033.41-6.067c.064-.943.125-1.888.193-2.831a4.8,4.8,0,0,1,.087-.688.945.945,0,0,1,1.877.182c.006.173,0,.348,0,.521Z" transform="translate(-94.777 -1886.399)" fill="#c2f2eb"/>
    <g id="Ellipse_4" data-name="Ellipse 4" transform="translate(-16.331 -18.136)" fill="none" stroke="#fff" stroke-width="2">
      <ellipse cx="43.5" cy="43" rx="43.5" ry="43" stroke="none"/>
      <ellipse cx="43.5" cy="43" rx="42.5" ry="42" fill="none"/>
    </g>
  </g>
</svg>
