<svg xmlns="http://www.w3.org/2000/svg" width="24.153" height="24.153" viewBox="0 0 24.153 24.153">
  <g id="Icon_feather-instagram" data-name="Icon feather-instagram" transform="translate(1.5 1.5)">
    <path id="Path_15" data-name="Path 15" d="M8.288,3H18.865a5.288,5.288,0,0,1,5.288,5.288V18.865a5.288,5.288,0,0,1-5.288,5.288H8.288A5.288,5.288,0,0,1,3,18.865V8.288A5.288,5.288,0,0,1,8.288,3Z" transform="translate(-3 -3)" fill="none" stroke="#fffbe8" stroke-linecap="round" stroke-linejoin="round" stroke-width="3"/>
    <path id="Path_16" data-name="Path 16" d="M20.48,15.545a4.231,4.231,0,1,1-3.564-3.564A4.231,4.231,0,0,1,20.48,15.545Z" transform="translate(-5.673 -5.635)" fill="none" stroke="#fffbe8" stroke-linecap="round" stroke-linejoin="round" stroke-width="3"/>
    <path id="Path_17" data-name="Path 17" d="M26.25,9.75h0" transform="translate(-9.857 -4.991)" fill="none" stroke="#fffbe8" stroke-linecap="round" stroke-linejoin="round" stroke-width="3"/>
  </g>
</svg>
