<svg xmlns="http://www.w3.org/2000/svg" width="79.286" height="65.042" viewBox="0 0 79.286 65.042">
  <g id="Group_12" data-name="Group 12" transform="translate(4.384 -8.138)">
    <g id="Group_391" data-name="Group 391" transform="translate(-459 -154.487)">
      <path id="Path_65" data-name="Path 65" d="M471.208,174.005s-.4-2.2.4-2.4,22.045,3.719,22.611,4c1.6.8,4.6.2,5.2,6.2s1.2,33.617,1.2,38.819a1.094,1.094,0,0,0,1,1c1,.2,7.2.6,10.805.6s7.4,0,7.8-.8c0,0-4.2-22.811-4.6-24.612s-3.2-17.009-3.6-18.009a17.055,17.055,0,0,0-6.8-8.6c-4.8-3-6.8-3.2-13.807-4S460.4,163,459.2,163a13.2,13.2,0,0,0-3.308.82.826.826,0,0,0-.546.7L455,168a5.114,5.114,0,0,0,4.8,2.6v1.624" fill="none" stroke="#1f8176" stroke-width="0.75"/>
      <path id="Path_66" data-name="Path 66" d="M536.622,222.884s-4.6-27.32-6.4-38.326-10.005-11.406-12.006-11.806-32.416-3.4-33.417-3.4-5.8,2-5.8,2l3.6-1.4a15.1,15.1,0,0,0,.2-4.8c-.2-.6-2-1.2-2.024-1.214" transform="translate(-19.198 -0.748)" fill="none" stroke="#1f8176" stroke-width="0.75"/>
      <ellipse id="Ellipse_11" data-name="Ellipse 11" cx="1.143" cy="1.827" rx="1.143" ry="1.827" transform="matrix(0.988, -0.155, 0.155, 0.988, 500.165, 203.775)" fill="none" stroke="#1f8176" stroke-width="0.75"/>
      <ellipse id="Ellipse_12" data-name="Ellipse 12" cx="1.143" cy="1.827" rx="1.143" ry="1.827" transform="matrix(0.997, -0.071, 0.071, 0.997, 500.708, 210.265)" fill="none" stroke="#1f8176" stroke-width="0.75"/>
      <path id="Path_67" data-name="Path 67" d="M498,170l2.2.8s28.214,1.8,38.019,4.2" transform="translate(-34.396 -5.599)" fill="none" stroke="#1f8176" stroke-width="0.75"/>
      <path id="Path_68" data-name="Path 68" d="M490.558,205.833c-.03.6-2.6,1.4-5.735,1.076s-5.656-1.663-5.625-2.267,1.959-.606,5.735-.209C488.963,204.856,490.589,205.23,490.558,205.833Z" transform="translate(-19.356 -32.237)" fill="none" stroke="#1f8176" stroke-width="0.75"/>
      <path id="Path_69" data-name="Path 69" d="M599.013,434.142l13.653,1.463c.55.058-.762.62-2.933,1.255l-15,4.384a23.13,23.13,0,0,1-4.924,1.043l-35.58-3.812c-.55-.06.762-.622,2.931-1.257l15-4.384a23.162,23.162,0,0,1,4.926-1.043l2.677.286" transform="translate(-79.273 -215.002)" fill="none" stroke="#1f8176" stroke-width="0.75"/>
    </g>
  </g>
</svg>
