<svg xmlns="http://www.w3.org/2000/svg" width="62.803" height="70.372" viewBox="0 0 62.803 70.372">
  <g id="Group_392" data-name="Group 392" transform="translate(-1065.49 -193.123)">
    <path id="Subtraction_1" data-name="Subtraction 1" d="M-2083-1886.037h0c-.091-.1-2.224-2.342-2.224-2.995l-.012-55.083a1.514,1.514,0,0,1,1.224-1.424l57.592-10.081a.513.513,0,0,1,.087-.007c.827,0,3.138,1.372,3.138,2l-.028.749a.968.968,0,0,0-.983-.764,1.249,1.249,0,0,0-.214.019l-57.591,10.081a1.516,1.516,0,0,0-1.225,1.425l.012,55.083a.977.977,0,0,0,.569.922l-.343.073Z" transform="translate(3151.098 2149.126)" fill="rgba(0,0,0,0)" stroke="#22857a" stroke-width="0.75"/>
    <path id="Path_73" data-name="Path 73" d="M1126.693,253.008,1069.1,263.089a1,1,0,0,1-1.225-1l-.012-55.083a1.513,1.513,0,0,1,1.224-1.424l57.592-10.081a1,1,0,0,1,1.225,1l.012,55.083A1.513,1.513,0,0,1,1126.693,253.008Z" transform="translate(0 0)" fill="none" stroke="#22857a" stroke-width="0.75"/>
    <path id="Path_71" data-name="Path 71" d="M1184.651,276.678l-11.711,2.05a.343.343,0,0,1-.422-.343v-2.471a.522.522,0,0,1,.422-.491l11.711-2.05a.343.343,0,0,1,.422.343v2.471A.521.521,0,0,1,1184.651,276.678Z" transform="translate(-80.907 -60.209)" fill="none" stroke="#22857a" stroke-width="0.75"/>
    <ellipse id="Ellipse_13" data-name="Ellipse 13" cx="6.814" cy="5.714" rx="6.814" ry="5.714" transform="translate(1089.042 239.326) rotate(-45.519)" fill="none" stroke="#22857a" stroke-width="0.75"/>
    <ellipse id="Ellipse_14" data-name="Ellipse 14" cx="8.486" cy="7.116" rx="8.486" ry="7.116" transform="translate(1086.871 239.536) rotate(-45.519)" fill="none" stroke="#22857a" stroke-width="0.5"/>
    <ellipse id="Ellipse_15" data-name="Ellipse 15" cx="9.752" cy="8.178" rx="9.752" ry="8.178" transform="translate(1085.226 239.696) rotate(-45.519)" fill="none" stroke="#22857a" stroke-width="0.5"/>
  </g>
</svg>
